# AST/ASF file generated using VICON BodyLanguage
# -----------------------------------------------
:version 1.10
:name VICON
:units
  mass 1.0
  length 0.45
  angle deg
:documentation
   .ast/.asf automatically generated from VICON data using
   VICON BodyBuilder and BodyLanguage model FoxedUp or BRILLIANT.MOD
:root
   order TX TY TZ RX RY RZ
   axis XYZ
   position 0 0 0  
   orientation 0 0 0 
:bonedata
  begin
     id 1 
     name lhipjoint
     direction 0.646657 -0.683706 0.338203 
     length 2.4948 
     axis 0 0 0  XYZ
  end
  begin
     id 2 
     name lfemur
     direction 0.34202 -0.939693 0  
     length 6.79491  
     axis 0 0 20  XYZ
    dof rx ry rz
    limits (-160.0 20.0)
           (-70.0 70.0)
           (-60.0 70.0)
  end
  begin
     id 3 
     name ltibia
     direction 0.34202 -0.939693 0   
     length 7.56807   
     axis 0 0 20   XYZ
    dof rx
    limits (-10.0 170.0)
  end
  begin
     id 4 
     name lfoot
     direction 0.0679796 -0.186772 0.980048   
     length 2.53018   
     axis -90 7.62852e-016 20   XYZ
    dof rx rz
    limits (-45.0 90.0)
           (-70.0 20.0)
  end
  begin
     id 5 
     name ltoes
     direction 1.53625e-011 -4.21881e-011 1   
     length 1.26912   
     axis -90 7.62852e-016 20   XYZ
    dof rx
    limits (-90.0 20.0)
  end
  begin
     id 6 
     name rhipjoint
     direction -0.618868 -0.704065 0.348274   
     length 2.42265  
     axis 0 0 0  XYZ 
  end
  begin
     id 7 
     name rfemur
     direction -0.34202 -0.939693 0   
     length 6.73814   
     axis 0 0 -20   XYZ
    dof rx ry rz
    limits (-160.0 20.0)
           (-70.0 70.0)
           (-70.0 60.0)
  end
  begin
     id 8 
     name rtibia
     direction -0.34202 -0.939693 0   
     length 7.66799   
     axis 0 0 -20   XYZ
    dof rx
    limits (-10.0 170.0)
 end
 begin
     id 9 
     name rfoot
     direction -0.0727352 -0.199838 0.977125   
     length 2.57224  
     axis -90 -7.62852e-016 -20   XYZ
    dof rx rz
    limits (-45.0 90.0)
           (-20.0 70.0)
  end
  begin
     id 10 
     name rtoes
     direction -1.53501e-011 -4.21858e-011 1   
     length 1.28858   
     axis -90 -7.62852e-016 -20   XYZ
    dof rx
    limits (-90.0 20.0)
  end
  begin
     id 11 
     name lowerback
     direction -0.0172471 0.995767 -0.0902851   
     length 2.20206   
     axis 0 0 0   XYZ
    dof rx ry rz
    limits (-20.0 45.0)
           (-30.0 30.0)
           (-30.0 30.0)
  end
  begin
     id 12 
     name upperback
     direction -0.000110737 0.999714 0.0239043   
     length 2.19523   
     axis 0 0 0   XYZ
    dof rx ry rz
    limits (-20.0 45.0)
           (-30.0 30.0)
           (-30.0 30.0)
  end
  begin
     id 13 
     name thorax
     direction 0.00704869 0.997783 0.0661741   
     length 2.21977   
     axis 0 0 0   XYZ
    dof rx ry rz
    limits (-20.0 45.0)
           (-30.0 30.0)
           (-30.0 30.0)
  end
  begin
     id 14 
     name lowerneck
     direction -0.00407501 0.995527 0.0943846   
     length 1.83142   
     axis 0 0 0   XYZ
    dof rx ry rz
    limits (-20.0 45.0)
           (-30.0 30.0)
           (-30.0 30.0)
  end
  begin
     id 15 
     name upperneck
     direction 0.0640586 0.986486 -0.150807   
     length 1.84616   
     axis 0 0 0   XYZ
    dof rx ry rz
    limits (-20.0 45.0)
           (-30.0 30.0)
           (-30.0 30.0)
  end
  begin
     id 16
     name head
     direction 0.0188017 0.99791 -0.0618239  
     length 1.85932  
     axis 0 0 0   XYZ
    dof rx ry rz
    limits (-20.0 45.0)
           (-30.0 30.0)
           (-30.0 30.0)
  end
  begin
     id 17 
     name lclavicle
     direction 0.976074 0.206905 0.066852  
     length 3.81043  
     axis 0 0 0   XYZ
    dof ry rz
    limits (-20.0 10.0)
           (0.0 20.0)
  end
  begin
     id 18 
     name lhumerus
     direction 1 -4.48971e-011 1.86916e-027   
     length 5.37587   
     axis 180 -30 -90   XYZ
    dof rx ry rz
    limits (-60.0 90.0)
           (-90.0 90.0)
           (-90.0 90.0)
  end
  begin
     id 19
     name lradius
     direction 1 -4.48968e-011 1.69187e-027   
     length 3.35977   
     axis 180 -30 -90   XYZ
    dof rx
    limits (-10.0 170.0)
  end
  begin
     id 20
     name lwrist
     direction 1 -4.48968e-011 5.8978e-027   
     length 1.67988   
     axis -3.27506e-015 90 90   XYZ
    dof ry
    limits (-180.0 0.0)
 end
  begin
     id 21 
     name lhand
     direction 1 -4.49028e-011 1.18071e-026   
     length 0.561859   
     axis -7.52654e-015 90 90   XYZ
    dof rx rz
    limits (-90.0 90.0)
           (-45.0 45.0)
  end
  begin
     id 22 
     name lfingers
     direction 1 -4.48927e-011 2.35758e-026   
     length 0.452985   
     axis -1.50534e-014 90 90   XYZ
    dof rx
    limits (0.0 90.0)
  end
  begin
     id 23
     name lthumb
     direction 0.707107 -6.34898e-011 0.707107   
     length 0.650399   
     axis -90 45 5.69224e-014   XYZ
    dof rx rz
    limits (-45.0 45.0)
           (-45.0 45.0)
  end
  begin
     id 24 
     name rclavicle
     direction -0.988403 0.151789 0.00439714   
     length 3.6942  
     axis 0 0 0   XYZ 
    dof ry rz
    limits (-10.0 20.0)
           (-20.0 0.0)
  end
  begin
     id 25 
     name rhumerus
     direction -1 -4.48978e-011 1.62495e-027  
     length 5.22819   
     axis 180 30 90   XYZ
    dof rx ry rz
    limits (-90.0 60.0)
           (-90.0 90.0)
           (-90.0 90.0)
  end
  begin
     id 26 
     name rradius
     direction -1 -4.48961e-011 3.47796e-027   
     length 3.40764   
     axis 180 30 90   XYZ
    dof rx
    limits (-10.0 170.0)
  end
  begin
     id 27 
     name rwrist
     direction -1 -4.48949e-011 5.89602e-027   
     length 1.70382   
     axis -3.27506e-015 -90 -90   XYZ
    dof ry
    limits (-180.0 0.0)
  end
  begin
     id 28
     name rhand
     direction -1 -4.48977e-011 1.17973e-026   
     length 0.583255   
     axis -7.52654e-015 -90 -90   XYZ
    dof rx rz
    limits (-90.0 90.0)
           (-45.0 45.0)
  end
  begin
     id 29
     name rfingers
     direction -1 -4.49099e-011 2.36408e-026   
     length 0.470235   
     axis -1.50534e-014 -90 -90   XYZ
    dof rx
    limits (0.0 90.0)
  end
  begin
     id 30
     name rthumb
     direction -0.707107 -6.35011e-011 0.707107   
     length 0.675167   
     axis -90 -45 -5.69224e-014   XYZ
    dof rx rz
    limits (-45.0 45.0)
           (-45.0 45.0)
  end
:hierarchy
  begin
    root lhipjoint rhipjoint lowerback
    lhipjoint lfemur
    lfemur ltibia
    ltibia lfoot
    lfoot ltoes
    rhipjoint rfemur
    rfemur rtibia
    rtibia rfoot
    rfoot rtoes
    lowerback upperback
    upperback thorax
    thorax lowerneck lclavicle rclavicle
    lowerneck upperneck
    upperneck head
    lclavicle lhumerus
    lhumerus lradius
    lradius lwrist
    lwrist lhand lthumb
    lhand lfingers
    rclavicle rhumerus
    rhumerus rradius
    rradius rwrist
    rwrist rhand rthumb
    rhand rfingers
  end

#!OML:ASF G:\JayActor3\Patient Classification 1\Patient 1\Session 2\male.ASF
:FULLY-SPECIFIED
:DEGREES
118
root 46.2117 16.4794 -7.25987 36.5043 -87.0995 -34.6361
lowerback -3.88079 -0.650307 -0.671779
upperback 3.80765 -0.921765 1.10758
thorax 6.1622 -0.527542 1.4431
lowerneck -3.39869 -10.6075 -9.56713
upperneck -0.546743 -14.2082 14.4261
head 2.14237 -7.0014 5.26489
rclavicle -3.0501e-015 9.41742e-015
rhumerus -25.86 -8.08976 -85.6621
rradius 23.7588
rwrist 1.78412
rhand -22.1081 6.89248
rfingers 7.12502
rthumb 4.30442 -23.0438
lclavicle -3.0501e-015 9.41742e-015
lhumerus -25.6867 5.33936 89.0654
lradius 25.0414
lwrist 8.59928
lhand -20.1391 17.8531
lfingers 7.12502
lthumb 6.20553 47.7422
rfemur -14.2549 -2.35844 23.6299
rtibia 39.2132
rfoot -29.2793 -8.99557
rtoes 20.1109
lfemur -10.2032 3.81448 -20.2451
ltibia 31.2192
lfoot -21.6426 12.8006
ltoes -5.17091
119
root 46.2083 16.479 -7.25825 36.3831 -87.0946 -34.5086
lowerback -3.87802 -0.650529 -0.673817
upperback 3.81082 -0.922021 1.10754
thorax 6.16401 -0.527816 1.44418
lowerneck -3.38863 -10.6114 -9.55751
upperneck -0.559814 -14.2129 14.4196
head 2.13623 -7.00446 5.2621
rclavicle 7.82715e-015 -1.56543e-015
rhumerus -25.848 -8.07235 -85.6494
rradius 23.7353
rwrist 1.80128
rhand -22.1203 6.90758
rfingers 7.12502
rthumb 4.29263 -23.0289
lclavicle 7.82715e-015 -1.56543e-015
lhumerus -25.667 5.29089 89.0766
lradius 25.033
lwrist 8.59884
lhand -20.133 17.8648
lfingers 7.12502
lthumb 6.21146 47.7538
rfemur -14.2517 -2.34745 23.6234
rtibia 39.2201
rfoot -29.2978 -9.00371
rtoes 20.1139
lfemur -10.2004 3.81397 -20.2523
ltibia 31.2218
lfoot -21.6467 12.7907
ltoes -5.17875
120
root 46.2047 16.4787 -7.25665 36.2801 -87.0898 -34.3974
lowerback -3.87388 -0.65199 -0.678561
upperback 3.81228 -0.923809 1.10906
thorax 6.16334 -0.528977 1.44831
lowerneck -3.38017 -10.6139 -9.553
upperneck -0.573752 -14.2157 14.4195
head 2.13075 -7.00652 5.26202
rclavicle 8.45456e-015 -3.13086e-015
rhumerus -25.8364 -8.05431 -85.6356
rradius 23.7127
rwrist 1.8216
rhand -22.1318 6.92278
rfingers 7.12502
rthumb 4.28148 -23.0139
lclavicle 8.45456e-015 -3.13086e-015
lhumerus -25.6526 5.24512 89.0888
lradius 25.0323
lwrist 8.60061
lhand -20.1236 17.8788
lfingers 7.12502
lthumb 6.22049 47.7675
rfemur -14.2496 -2.33358 23.6179
rtibia 39.2268
rfoot -29.3185 -9.01255
rtoes 20.1244
lfemur -10.1991 3.81348 -20.2589
ltibia 31.2241
lfoot -21.6497 12.7803
ltoes -5.19232
121
root 46.2007 16.4782 -7.2551 36.1963 -87.086 -34.3047
lowerback -3.86732 -0.653735 -0.686312
upperback 3.81225 -0.925777 1.11112
thorax 6.15978 -0.530343 1.45469
lowerneck -3.37506 -10.6154 -9.55033
upperneck -0.587929 -14.2171 14.4244
head 2.12614 -7.00776 5.26363
rclavicle 1.14985e-014 -1.17283e-014
rhumerus -25.826 -8.03999 -85.6217
rradius 23.6916
rwrist 1.847
rhand -22.145 6.93227
rfingers 7.12502
rthumb 4.26876 -23.0047
lclavicle 1.14985e-014 -1.17283e-014
lhumerus -25.6419 5.19655 89.1025
lradius 25.038
lwrist 8.61176
lhand -20.117 17.9021
lfingers 7.12502
lthumb 6.2269 47.7905
rfemur -14.2473 -2.31671 23.6133
rtibia 39.2334
rfoot -29.3423 -9.02246
rtoes 20.1355
lfemur -10.197 3.81307 -20.2649
ltibia 31.2265
lfoot -21.656 12.768
ltoes -5.19296
122
root 46.1966 16.4778 -7.25345 36.1317 -87.0838 -34.2276
lowerback -3.86107 -0.655466 -0.696016
upperback 3.80777 -0.927577 1.11495
thorax 6.15175 -0.531674 1.46403
lowerneck -3.36176 -10.6156 -9.55537
upperneck -0.603148 -14.217 14.4332
head 2.12057 -7.00855 5.26815
rclavicle -7.01958e-016 1.93815e-015
rhumerus -25.8206 -8.02785 -85.6035
rradius 23.6704
rwrist 1.87596
rhand -22.1597 6.94237
rfingers 7.12502
rthumb 4.25453 -22.9949
lclavicle -7.01958e-016 1.93815e-015
lhumerus -25.6399 5.14753 89.1196
lradius 25.0491
lwrist 8.62909
lhand -20.1121 17.9268
lfingers 7.12502
lthumb 6.23157 47.8152
rfemur -14.2485 -2.3021 23.6078
rtibia 39.2398
rfoot -29.3648 -9.03131
rtoes 20.1454
lfemur -10.1977 3.81374 -20.2723
ltibia 31.2294
lfoot -21.6652 12.7571
ltoes -5.19584
123
root 46.1921 16.4773 -7.25175 36.1015 -87.081 -34.1835
lowerback -3.85505 -0.657504 -0.705924
upperback 3.80067 -0.929785 1.12014
thorax 6.14113 -0.533201 1.47488
lowerneck -3.34273 -10.6147 -9.5644
upperneck -0.618882 -14.2157 14.445
head 2.1143 -7.0089 5.27459
rclavicle 7.16246e-015 -8.74653e-015
rhumerus -25.818 -8.02034 -85.5829
rradius 23.6471
rwrist 1.90743
rhand -22.1703 6.95414
rfingers 7.12502
rthumb 4.24431 -22.9833
lclavicle 7.16246e-015 -8.74653e-015
lhumerus -25.6433 5.09926 89.1375
lradius 25.0618
lwrist 8.64995
lhand -20.1126 17.9487
lfingers 7.12502
lthumb 6.23115 47.837
rfemur -14.2494 -2.28962 23.6039
rtibia 39.2453
rfoot -29.3863 -9.04039
rtoes 20.1427
lfemur -10.1982 3.81189 -20.2784
ltibia 31.234
lfoot -21.6803 12.7471
ltoes -5.19281
124
root 46.1873 16.4767 -7.24998 36.1055 -87.0763 -34.1724
lowerback -3.85044 -0.660232 -0.714283
upperback 3.79104 -0.933016 1.12645
thorax 6.12868 -0.535146 1.48593
lowerneck -3.324 -10.6128 -9.57528
upperneck -0.626253 -14.2138 14.4547
head 2.11042 -7.00876 5.28049
rclavicle 7.1811e-015 -1.33186e-014
rhumerus -25.8177 -8.01672 -85.5611
rradius 23.6199
rwrist 1.9407
rhand -22.1776 6.97864
rfingers 7.12502
rthumb 4.23723 -22.959
lclavicle 7.1811e-015 -1.33186e-014
lhumerus -25.6546 5.05253 89.1547
lradius 25.079
lwrist 8.6733
lhand -20.1118 17.9592
lfingers 7.12502
lthumb 6.23193 47.8475
rfemur -14.2503 -2.28183 23.6022
rtibia 39.2499
rfoot -29.4063 -9.04834
rtoes 20.1302
lfemur -10.1994 3.80778 -20.2824
ltibia 31.24
lfoot -21.7004 12.7397
ltoes -5.18768
125
root 46.1824 16.4762 -7.24818 36.2003 -87.0692 -34.2499
lowerback -3.84993 -0.66206 -0.716753
upperback 3.77856 -0.935385 1.13349
thorax 6.11547 -0.536372 1.49448
lowerneck -3.29793 -10.6104 -9.58726
upperneck -0.631154 -14.2118 14.463
head 2.10601 -7.00872 5.2865
rclavicle 4.02539e-015 -4.22417e-015
rhumerus -25.8214 -8.01687 -85.5393
rradius 23.5934
rwrist 1.9694
rhand -22.1817 6.99353
rfingers 7.12502
rthumb 4.23331 -22.9441
lclavicle 4.02539e-015 -4.22417e-015
lhumerus -25.6712 5.00428 89.1706
lradius 25.0968
lwrist 8.69593
lhand -20.1124 17.9601
lfingers 7.12502
lthumb 6.2313 47.8484
rfemur -14.2522 -2.27561 23.606
rtibia 39.2533
rfoot -29.4225 -9.05643
rtoes 20.107
lfemur -10.2025 3.8002 -20.2813
ltibia 31.2475
lfoot -21.7253 12.7356
ltoes -5.17322
126
root 46.1772 16.4757 -7.24635 36.2671 -87.061 -34.2975
lowerback -3.85053 -0.665323 -0.718863
upperback 3.76213 -0.93952 1.13954
thorax 6.09876 -0.53835 1.50165
lowerneck -3.26975 -10.6066 -9.6025
upperneck -0.625801 -14.2088 14.4708
head 2.10433 -7.00801 5.29274
rclavicle 4.62796e-015 3.8266e-015
rhumerus -25.8313 -8.0116 -85.5208
rradius 23.5693
rwrist 1.98682
rhand -22.1798 6.99796
rfingers 7.12502
rthumb 4.23513 -22.9397
lclavicle 4.62796e-015 3.8266e-015
lhumerus -25.6949 4.95788 89.1828
lradius 25.1145
lwrist 8.71707
lhand -20.1109 17.9566
lfingers 7.12502
lthumb 6.23273 47.8449
rfemur -14.2549 -2.27256 23.6086
rtibia 39.2566
rfoot -29.4369 -9.06344
rtoes 20.0767
lfemur -10.2067 3.78801 -20.2817
ltibia 31.2549
lfoot -21.7512 12.7368
ltoes -5.16291
127
root 46.1717 16.4751 -7.24454 36.2988 -87.052 -34.3101
lowerback -3.85415 -0.668819 -0.721281
upperback 3.74663 -0.943844 1.14382
thorax 6.08474 -0.540405 1.50708
lowerneck -3.25379 -10.6045 -9.61099
upperneck -0.608844 -14.2082 14.47
head 2.10716 -7.00784 5.29426
rclavicle -2.55935e-015 -1.54058e-015
rhumerus -25.8418 -8.00318 -85.5071
rradius 23.5509
rwrist 1.99254
rhand -22.1749 6.98954
rfingers 7.12502
rthumb 4.23991 -22.948
lclavicle -2.55935e-015 -1.54058e-015
lhumerus -25.7178 4.91005 89.1917
lradius 25.1328
lwrist 8.7368
lhand -20.1109 17.9483
lfingers 7.12502
lthumb 6.23273 47.8366
rfemur -14.2563 -2.27025 23.6103
rtibia 39.2602
rfoot -29.4527 -9.06943
rtoes 20.0453
lfemur -10.2093 3.77223 -20.2832
ltibia 31.2614
lfoot -21.7774 12.7417
ltoes -5.1531
128
root 46.1659 16.4744 -7.24273 36.3014 -87.0446 -34.2927
lowerback -3.86057 -0.672197 -0.724201
upperback 3.73129 -0.947865 1.14647
thorax 6.07248 -0.542292 1.51112
lowerneck -3.24305 -10.6045 -9.61653
upperneck -0.586801 -14.2106 14.4647
head 2.1121 -7.00884 5.29331
rclavicle -4.33599e-015 5.2181e-015
rhumerus -25.8546 -7.98671 -85.4975
rradius 23.5401
rwrist 1.98256
rhand -22.1599 6.96643
rfingers 7.12502
rthumb 4.25439 -22.9708
lclavicle -4.33599e-015 5.2181e-015
lhumerus -25.7419 4.86113 89.1986
lradius 25.1529
lwrist 8.75555
lhand -20.1098 17.9469
lfingers 7.12502
lthumb 6.2338 47.8352
rfemur -14.2577 -2.26791 23.609
rtibia 39.2646
rfoot -29.4684 -9.07536
rtoes 20.0078
lfemur -10.2103 3.75791 -20.2873
ltibia 31.2658
lfoot -21.8022 12.7481
ltoes -5.14932
